<mxfile host="app.diagrams.net" agent="Mozilla/5.0 (Windows NT 10.0; Win64; x64) AppleWebKit/537.36 (KHTML, like Gecko) Chrome/140.0.0.0 Safari/537.36 Edg/140.0.0.0" version="28.2.3">
  <diagram name="Page-1" id="xEgT5iEKF34CT3yMH5_1">
    <mxGraphModel grid="1" page="1" gridSize="10" guides="1" tooltips="1" connect="1" arrows="1" fold="1" pageScale="1" pageWidth="850" pageHeight="1100" math="0" shadow="0">
      <root>
        <mxCell id="0" />
        <mxCell id="1" parent="0" />
        <mxCell id="PEn2_-k94qzT03PxDQ6M-1" value="" style="group" vertex="1" connectable="0" parent="1">
          <mxGeometry x="120" y="304" width="162" height="456" as="geometry" />
        </mxCell>
        <mxCell id="PEn2_-k94qzT03PxDQ6M-2" value="" style="rounded=0;whiteSpace=wrap;html=1;fillColor=none;strokeColor=#939393;" vertex="1" parent="PEn2_-k94qzT03PxDQ6M-1">
          <mxGeometry y="28.5" width="162" height="427.5" as="geometry" />
        </mxCell>
        <mxCell id="PEn2_-k94qzT03PxDQ6M-3" value="&lt;font style=&quot;font-size: 24px;&quot;&gt;Sources&lt;/font&gt;" style="rounded=1;whiteSpace=wrap;html=1;strokeColor=none;" vertex="1" parent="PEn2_-k94qzT03PxDQ6M-1">
          <mxGeometry x="22" width="100" height="57" as="geometry" />
        </mxCell>
        <mxCell id="PEn2_-k94qzT03PxDQ6M-6" value="" style="image;aspect=fixed;html=1;points=[];align=center;fontSize=12;image=img/lib/azure2/general/Folder_Blank.svg;" vertex="1" parent="PEn2_-k94qzT03PxDQ6M-1">
          <mxGeometry x="53" y="153.4" width="56.05" height="45.486" as="geometry" />
        </mxCell>
        <mxCell id="PEn2_-k94qzT03PxDQ6M-7" value="" style="sketch=0;pointerEvents=1;shadow=0;dashed=0;html=1;strokeColor=#006EAF;fillColor=#1ba1e2;aspect=fixed;labelPosition=center;verticalLabelPosition=bottom;verticalAlign=top;align=center;outlineConnect=0;shape=mxgraph.vvd.log_files;fontColor=#ffffff;" vertex="1" parent="PEn2_-k94qzT03PxDQ6M-1">
          <mxGeometry x="93" y="191.39999999999998" width="20.9" height="26.125" as="geometry" />
        </mxCell>
        <mxCell id="PEn2_-k94qzT03PxDQ6M-8" value="&lt;b&gt;CRM&lt;/b&gt;" style="rounded=0;whiteSpace=wrap;html=1;strokeColor=none;" vertex="1" parent="PEn2_-k94qzT03PxDQ6M-1">
          <mxGeometry x="66" y="213.725" width="29.25" height="21.375" as="geometry" />
        </mxCell>
        <mxCell id="PEn2_-k94qzT03PxDQ6M-28" value="" style="endArrow=none;html=1;rounded=0;" edge="1" parent="PEn2_-k94qzT03PxDQ6M-1">
          <mxGeometry width="50" height="50" relative="1" as="geometry">
            <mxPoint x="110" y="175.66799999999998" as="sourcePoint" />
            <mxPoint x="180" y="175.25" as="targetPoint" />
          </mxGeometry>
        </mxCell>
        <mxCell id="PEn2_-k94qzT03PxDQ6M-29" value="" style="endArrow=none;html=1;rounded=0;" edge="1" parent="PEn2_-k94qzT03PxDQ6M-1">
          <mxGeometry width="50" height="50" relative="1" as="geometry">
            <mxPoint x="100" y="359.468" as="sourcePoint" />
            <mxPoint x="190" y="359.05" as="targetPoint" />
          </mxGeometry>
        </mxCell>
        <mxCell id="PEn2_-k94qzT03PxDQ6M-10" value="" style="image;aspect=fixed;html=1;points=[];align=center;fontSize=12;image=img/lib/azure2/general/Folder_Blank.svg;" vertex="1" parent="PEn2_-k94qzT03PxDQ6M-1">
          <mxGeometry x="42" y="332.45" width="56.05" height="45.486" as="geometry" />
        </mxCell>
        <mxCell id="PEn2_-k94qzT03PxDQ6M-12" value="&lt;b&gt;ERP&lt;/b&gt;" style="rounded=0;whiteSpace=wrap;html=1;strokeColor=none;" vertex="1" parent="PEn2_-k94qzT03PxDQ6M-1">
          <mxGeometry x="51" y="384.375" width="40" height="19" as="geometry" />
        </mxCell>
        <mxCell id="PEn2_-k94qzT03PxDQ6M-38" style="edgeStyle=orthogonalEdgeStyle;rounded=0;orthogonalLoop=1;jettySize=auto;html=1;exitX=0.5;exitY=1;exitDx=0;exitDy=0;" edge="1" parent="PEn2_-k94qzT03PxDQ6M-1" source="PEn2_-k94qzT03PxDQ6M-2" target="PEn2_-k94qzT03PxDQ6M-2">
          <mxGeometry relative="1" as="geometry" />
        </mxCell>
        <mxCell id="PEn2_-k94qzT03PxDQ6M-11" value="" style="sketch=0;pointerEvents=1;shadow=0;dashed=0;html=1;strokeColor=#006EAF;fillColor=#1ba1e2;aspect=fixed;labelPosition=center;verticalLabelPosition=bottom;verticalAlign=top;align=center;outlineConnect=0;shape=mxgraph.vvd.log_files;fontColor=#ffffff;" vertex="1" parent="PEn2_-k94qzT03PxDQ6M-1">
          <mxGeometry x="83" y="366.65" width="23.75" height="29.6875" as="geometry" />
        </mxCell>
        <mxCell id="PEn2_-k94qzT03PxDQ6M-14" value="Bronze Layer" style="rounded=1;whiteSpace=wrap;html=1;fillColor=#ffe6cc;strokeColor=#d79b00;" vertex="1" parent="1">
          <mxGeometry x="360" y="320" width="160" height="40" as="geometry" />
        </mxCell>
        <mxCell id="PEn2_-k94qzT03PxDQ6M-15" value="" style="rounded=1;whiteSpace=wrap;html=1;strokeColor=#C69057;fillColor=none;strokeWidth=2;" vertex="1" parent="1">
          <mxGeometry x="350" y="379" width="180" height="381" as="geometry" />
        </mxCell>
        <mxCell id="PEn2_-k94qzT03PxDQ6M-16" value="crm_sales_details" style="rounded=1;whiteSpace=wrap;html=1;fillColor=#ffe6cc;strokeColor=#d79b00;" vertex="1" parent="1">
          <mxGeometry x="376" y="397" width="130" height="40" as="geometry" />
        </mxCell>
        <mxCell id="PEn2_-k94qzT03PxDQ6M-20" value="crm_cust_info" style="rounded=1;whiteSpace=wrap;html=1;fillColor=#ffe6cc;strokeColor=#d79b00;" vertex="1" parent="1">
          <mxGeometry x="377" y="459" width="130" height="40" as="geometry" />
        </mxCell>
        <mxCell id="PEn2_-k94qzT03PxDQ6M-21" value="crm_prd_info" style="rounded=1;whiteSpace=wrap;html=1;fillColor=#ffe6cc;strokeColor=#d79b00;" vertex="1" parent="1">
          <mxGeometry x="378" y="521" width="130" height="40" as="geometry" />
        </mxCell>
        <mxCell id="PEn2_-k94qzT03PxDQ6M-22" value="erp_px_cat_g1v2" style="rounded=1;whiteSpace=wrap;html=1;fillColor=#ffe6cc;strokeColor=#d79b00;" vertex="1" parent="1">
          <mxGeometry x="376" y="582" width="130" height="40" as="geometry" />
        </mxCell>
        <mxCell id="PEn2_-k94qzT03PxDQ6M-23" value="erp_loc_a101" style="rounded=1;whiteSpace=wrap;html=1;fillColor=#ffe6cc;strokeColor=#d79b00;" vertex="1" parent="1">
          <mxGeometry x="376" y="642" width="130" height="40" as="geometry" />
        </mxCell>
        <mxCell id="PEn2_-k94qzT03PxDQ6M-25" value="erp_cust_az12" style="rounded=1;whiteSpace=wrap;html=1;fillColor=#ffe6cc;strokeColor=#d79b00;" vertex="1" parent="1">
          <mxGeometry x="377" y="700" width="130" height="40" as="geometry" />
        </mxCell>
        <mxCell id="PEn2_-k94qzT03PxDQ6M-27" value="" style="edgeStyle=orthogonalEdgeStyle;rounded=0;orthogonalLoop=1;jettySize=auto;html=1;" edge="1" parent="1">
          <mxGeometry relative="1" as="geometry">
            <mxPoint x="298" y="479" as="sourcePoint" />
            <mxPoint x="376" y="479" as="targetPoint" />
          </mxGeometry>
        </mxCell>
        <mxCell id="PEn2_-k94qzT03PxDQ6M-30" value="" style="edgeStyle=orthogonalEdgeStyle;rounded=0;orthogonalLoop=1;jettySize=auto;html=1;" edge="1" parent="1">
          <mxGeometry relative="1" as="geometry">
            <mxPoint x="297" y="416.5" as="sourcePoint" />
            <mxPoint x="375" y="416.5" as="targetPoint" />
          </mxGeometry>
        </mxCell>
        <mxCell id="PEn2_-k94qzT03PxDQ6M-31" value="" style="edgeStyle=orthogonalEdgeStyle;rounded=0;orthogonalLoop=1;jettySize=auto;html=1;" edge="1" parent="1">
          <mxGeometry relative="1" as="geometry">
            <mxPoint x="299" y="540.5" as="sourcePoint" />
            <mxPoint x="377" y="540.5" as="targetPoint" />
          </mxGeometry>
        </mxCell>
        <mxCell id="PEn2_-k94qzT03PxDQ6M-32" value="" style="edgeStyle=orthogonalEdgeStyle;rounded=0;orthogonalLoop=1;jettySize=auto;html=1;" edge="1" parent="1">
          <mxGeometry relative="1" as="geometry">
            <mxPoint x="298" y="600.5" as="sourcePoint" />
            <mxPoint x="376" y="600.5" as="targetPoint" />
          </mxGeometry>
        </mxCell>
        <mxCell id="PEn2_-k94qzT03PxDQ6M-33" value="" style="edgeStyle=orthogonalEdgeStyle;rounded=0;orthogonalLoop=1;jettySize=auto;html=1;" edge="1" parent="1">
          <mxGeometry relative="1" as="geometry">
            <mxPoint x="297" y="663" as="sourcePoint" />
            <mxPoint x="375" y="663" as="targetPoint" />
          </mxGeometry>
        </mxCell>
        <mxCell id="PEn2_-k94qzT03PxDQ6M-34" value="" style="edgeStyle=orthogonalEdgeStyle;rounded=0;orthogonalLoop=1;jettySize=auto;html=1;" edge="1" parent="1">
          <mxGeometry relative="1" as="geometry">
            <mxPoint x="300" y="719.5" as="sourcePoint" />
            <mxPoint x="378" y="719.5" as="targetPoint" />
          </mxGeometry>
        </mxCell>
        <mxCell id="PEn2_-k94qzT03PxDQ6M-36" value="" style="line;strokeWidth=1;direction=south;html=1;" vertex="1" parent="1">
          <mxGeometry x="297" y="416" width="1" height="124" as="geometry" />
        </mxCell>
        <mxCell id="PEn2_-k94qzT03PxDQ6M-37" value="" style="line;strokeWidth=1;direction=south;html=1;" vertex="1" parent="1">
          <mxGeometry x="298" y="600" width="1" height="120" as="geometry" />
        </mxCell>
        <mxCell id="Lqy9Qmx2VK9qINUHeLLJ-1" value="Bronze Layer" style="rounded=1;whiteSpace=wrap;html=1;fillColor=#f5f5f5;strokeColor=#666666;fontColor=#333333;" vertex="1" parent="1">
          <mxGeometry x="571" y="321" width="160" height="40" as="geometry" />
        </mxCell>
        <mxCell id="Lqy9Qmx2VK9qINUHeLLJ-2" value="" style="rounded=1;whiteSpace=wrap;html=1;strokeColor=#878787;fillColor=none;strokeWidth=2;fontColor=#333333;" vertex="1" parent="1">
          <mxGeometry x="560" y="380" width="180" height="381" as="geometry" />
        </mxCell>
        <mxCell id="BB3tlB8lTelSNOvrj98c-16" style="rounded=0;orthogonalLoop=1;jettySize=auto;html=1;entryX=0;entryY=0.5;entryDx=0;entryDy=0;sourcePerimeterSpacing=0;" edge="1" parent="1" source="Lqy9Qmx2VK9qINUHeLLJ-3" target="BB3tlB8lTelSNOvrj98c-3">
          <mxGeometry relative="1" as="geometry" />
        </mxCell>
        <mxCell id="Lqy9Qmx2VK9qINUHeLLJ-3" value="crm_sales_details" style="rounded=1;whiteSpace=wrap;html=1;fillColor=#f5f5f5;strokeColor=#666666;fontColor=#333333;" vertex="1" parent="1">
          <mxGeometry x="587" y="398" width="130" height="40" as="geometry" />
        </mxCell>
        <mxCell id="BB3tlB8lTelSNOvrj98c-15" style="rounded=0;orthogonalLoop=1;jettySize=auto;html=1;entryX=0;entryY=0.5;entryDx=0;entryDy=0;flowAnimation=0;sourcePerimeterSpacing=0;jumpStyle=gap;" edge="1" parent="1" source="Lqy9Qmx2VK9qINUHeLLJ-4" target="BB3tlB8lTelSNOvrj98c-4">
          <mxGeometry relative="1" as="geometry" />
        </mxCell>
        <mxCell id="Lqy9Qmx2VK9qINUHeLLJ-4" value="crm_cust_info" style="rounded=1;whiteSpace=wrap;html=1;fillColor=#f5f5f5;strokeColor=#666666;fontColor=#333333;" vertex="1" parent="1">
          <mxGeometry x="588" y="460" width="130" height="40" as="geometry" />
        </mxCell>
        <mxCell id="BB3tlB8lTelSNOvrj98c-18" style="rounded=0;orthogonalLoop=1;jettySize=auto;html=1;entryX=0;entryY=0.5;entryDx=0;entryDy=0;flowAnimation=0;sourcePerimeterSpacing=0;exitX=1;exitY=0.5;exitDx=0;exitDy=0;" edge="1" parent="1" source="Lqy9Qmx2VK9qINUHeLLJ-5" target="BB3tlB8lTelSNOvrj98c-5">
          <mxGeometry relative="1" as="geometry" />
        </mxCell>
        <mxCell id="Lqy9Qmx2VK9qINUHeLLJ-5" value="crm_prd_info" style="rounded=1;whiteSpace=wrap;html=1;fillColor=#f5f5f5;strokeColor=#666666;fontColor=#333333;" vertex="1" parent="1">
          <mxGeometry x="589" y="522" width="130" height="40" as="geometry" />
        </mxCell>
        <mxCell id="BB3tlB8lTelSNOvrj98c-19" style="rounded=0;orthogonalLoop=1;jettySize=auto;html=1;entryX=0;entryY=0.5;entryDx=0;entryDy=0;flowAnimation=0;sourcePerimeterSpacing=0;jumpStyle=gap;" edge="1" parent="1" source="Lqy9Qmx2VK9qINUHeLLJ-6" target="BB3tlB8lTelSNOvrj98c-4">
          <mxGeometry relative="1" as="geometry" />
        </mxCell>
        <mxCell id="Lqy9Qmx2VK9qINUHeLLJ-6" value="erp_px_cat_g1v2" style="rounded=1;whiteSpace=wrap;html=1;fillColor=#f5f5f5;strokeColor=#666666;fontColor=#333333;" vertex="1" parent="1">
          <mxGeometry x="587" y="583" width="130" height="40" as="geometry" />
        </mxCell>
        <mxCell id="Lqy9Qmx2VK9qINUHeLLJ-7" value="erp_loc_a101" style="rounded=1;whiteSpace=wrap;html=1;fillColor=#f5f5f5;strokeColor=#666666;fontColor=#333333;" vertex="1" parent="1">
          <mxGeometry x="587" y="643" width="130" height="40" as="geometry" />
        </mxCell>
        <mxCell id="BB3tlB8lTelSNOvrj98c-21" style="rounded=0;orthogonalLoop=1;jettySize=auto;html=1;entryX=0;entryY=0.5;entryDx=0;entryDy=0;flowAnimation=0;sourcePerimeterSpacing=0;jumpStyle=gap;" edge="1" parent="1" source="Lqy9Qmx2VK9qINUHeLLJ-8" target="BB3tlB8lTelSNOvrj98c-5">
          <mxGeometry relative="1" as="geometry" />
        </mxCell>
        <mxCell id="Lqy9Qmx2VK9qINUHeLLJ-8" value="erp_cust_az12" style="rounded=1;whiteSpace=wrap;html=1;fillColor=#f5f5f5;strokeColor=#666666;fontColor=#333333;" vertex="1" parent="1">
          <mxGeometry x="588" y="701" width="130" height="40" as="geometry" />
        </mxCell>
        <mxCell id="Lqy9Qmx2VK9qINUHeLLJ-9" value="" style="edgeStyle=orthogonalEdgeStyle;rounded=0;orthogonalLoop=1;jettySize=auto;html=1;" edge="1" parent="1">
          <mxGeometry relative="1" as="geometry">
            <mxPoint x="509" y="480" as="sourcePoint" />
            <mxPoint x="587" y="480" as="targetPoint" />
          </mxGeometry>
        </mxCell>
        <mxCell id="Lqy9Qmx2VK9qINUHeLLJ-10" value="" style="edgeStyle=orthogonalEdgeStyle;rounded=0;orthogonalLoop=1;jettySize=auto;html=1;" edge="1" parent="1">
          <mxGeometry relative="1" as="geometry">
            <mxPoint x="508" y="417.5" as="sourcePoint" />
            <mxPoint x="586" y="417.5" as="targetPoint" />
          </mxGeometry>
        </mxCell>
        <mxCell id="Lqy9Qmx2VK9qINUHeLLJ-11" value="" style="edgeStyle=orthogonalEdgeStyle;rounded=0;orthogonalLoop=1;jettySize=auto;html=1;" edge="1" parent="1">
          <mxGeometry relative="1" as="geometry">
            <mxPoint x="510" y="541.5" as="sourcePoint" />
            <mxPoint x="588" y="541.5" as="targetPoint" />
          </mxGeometry>
        </mxCell>
        <mxCell id="Lqy9Qmx2VK9qINUHeLLJ-12" value="" style="edgeStyle=orthogonalEdgeStyle;rounded=0;orthogonalLoop=1;jettySize=auto;html=1;" edge="1" parent="1">
          <mxGeometry relative="1" as="geometry">
            <mxPoint x="509" y="601.5" as="sourcePoint" />
            <mxPoint x="587" y="601.5" as="targetPoint" />
          </mxGeometry>
        </mxCell>
        <mxCell id="Lqy9Qmx2VK9qINUHeLLJ-13" value="" style="edgeStyle=orthogonalEdgeStyle;rounded=0;orthogonalLoop=1;jettySize=auto;html=1;" edge="1" parent="1">
          <mxGeometry relative="1" as="geometry">
            <mxPoint x="508" y="664" as="sourcePoint" />
            <mxPoint x="586" y="664" as="targetPoint" />
          </mxGeometry>
        </mxCell>
        <mxCell id="Lqy9Qmx2VK9qINUHeLLJ-14" value="" style="edgeStyle=orthogonalEdgeStyle;rounded=0;orthogonalLoop=1;jettySize=auto;html=1;" edge="1" parent="1">
          <mxGeometry relative="1" as="geometry">
            <mxPoint x="511" y="720.5" as="sourcePoint" />
            <mxPoint x="589" y="720.5" as="targetPoint" />
          </mxGeometry>
        </mxCell>
        <mxCell id="BB3tlB8lTelSNOvrj98c-1" value="Bronze Layer" style="rounded=1;whiteSpace=wrap;html=1;fillColor=#fff2cc;strokeColor=#d6b656;" vertex="1" parent="1">
          <mxGeometry x="822" y="322" width="160" height="40" as="geometry" />
        </mxCell>
        <mxCell id="BB3tlB8lTelSNOvrj98c-2" value="" style="rounded=1;whiteSpace=wrap;html=1;strokeWidth=2;fillColor=none;strokeColor=#FFCE20;" vertex="1" parent="1">
          <mxGeometry x="811" y="381" width="188" height="381" as="geometry" />
        </mxCell>
        <mxCell id="BB3tlB8lTelSNOvrj98c-3" value="fact_sales" style="rounded=1;whiteSpace=wrap;html=1;fillColor=#fff2cc;strokeColor=#d6b656;" vertex="1" parent="1">
          <mxGeometry x="837" y="400" width="130" height="40" as="geometry" />
        </mxCell>
        <mxCell id="BB3tlB8lTelSNOvrj98c-4" value="dim_customer" style="rounded=1;whiteSpace=wrap;html=1;fillColor=#fff2cc;strokeColor=#d6b656;" vertex="1" parent="1">
          <mxGeometry x="831.5" y="540" width="130" height="40" as="geometry" />
        </mxCell>
        <mxCell id="BB3tlB8lTelSNOvrj98c-5" value="dim_product" style="rounded=1;whiteSpace=wrap;html=1;fillColor=#fff2cc;strokeColor=#d6b656;" vertex="1" parent="1">
          <mxGeometry x="831.5" y="630" width="130" height="40" as="geometry" />
        </mxCell>
        <mxCell id="BB3tlB8lTelSNOvrj98c-20" style="rounded=0;orthogonalLoop=1;jettySize=auto;html=1;exitX=1;exitY=0.5;exitDx=0;exitDy=0;entryX=0.081;entryY=0.47;entryDx=0;entryDy=0;entryPerimeter=0;flowAnimation=0;sourcePerimeterSpacing=0;jumpStyle=gap;" edge="1" parent="1" source="Lqy9Qmx2VK9qINUHeLLJ-7" target="BB3tlB8lTelSNOvrj98c-2">
          <mxGeometry relative="1" as="geometry" />
        </mxCell>
      </root>
    </mxGraphModel>
  </diagram>
</mxfile>
